<svg xmlns="http://www.w3.org/2000/svg" viewBox="0 0 100 100">
  <defs>
    <linearGradient id="grad1" x1="0%" y1="0%" x2="100%" y2="100%">
      <stop offset="0%" style="stop-color:#4ade80;stop-opacity:1" />
      <stop offset="100%" style="stop-color:#166534;stop-opacity:1" />
    </linearGradient>
  </defs>
  
  <!-- The Tag -->
  <path d="M20,40 L50,10 L90,10 L90,50 L60,80 L20,40 Z" fill="#f3f4f6" stroke="#374151" stroke-width="3" />
  <circle cx="75" cy="25" r="5" fill="#374151" />
  
  <!-- The Monster (Godzilla-ish) peeking from behind/integrated -->
  <path d="M 35 45 
           Q 30 30 40 20 
           Q 50 10 60 25 
           L 60 40
           Z" fill="url(#grad1)" />
           
  <!-- Better Godzilla Silhouette -->
  <path d="M10,90 
           L20,70 
           Q25,50 40,50 
           Q50,50 55,40 
           Q60,30 50,20 
           Q40,10 60,10 
           Q80,10 80,30 
           Q80,50 70,60 
           L80,80 
           L90,90 
           L10,90 Z" 
           fill="url(#grad1)" stroke="#064e3b" stroke-width="2" />
           
  <!-- Eye -->
  <circle cx="55" cy="25" r="3" fill="white" />
  <circle cx="56" cy="25" r="1" fill="black" />
  
  <!-- Spikes -->
  <path d="M20,70 L10,65 L22,60 Z" fill="#166534" />
  <path d="M25,50 L15,45 L27,40 Z" fill="#166534" />
  <path d="M30,30 L20,25 L32,20 Z" fill="#166534" />

  <!-- The Tag Overlay (Clean Version) -->
  <path d="M55,55 L85,25 L95,25 L95,55 L65,85 L55,55 Z" fill="#fff" stroke="#374151" stroke-width="2" opacity="0.9" />
  <circle cx="85" cy="35" r="3" fill="#374151" />

</svg>